<?xml version="1.0"?><svg version="1.1" id="圖層_1" xmlns="http://www.w3.org/2000/svg" x="0" y="0" viewBox="0 0 100 100" xml:space="preserve"><ellipse cx="50" cy="82.4" rx="24.5" ry="6.6" stroke-width="3.5" stroke-miterlimit="10" fill="#e0e0e0" stroke="#333"/><path d="M50 11c-10.8 0-19.5 8.8-19.5 19.8 0 .8 0 1.5.1 2.3h0c.1.6.2 1.1.3 1.7l.5 2c.2.7.4 1.3.7 2l17.1 42.8c.3.7 1.3.7 1.6 0l17.1-42.8c.3-.6.5-1.3.7-2l.5-2c.1-.6.3-1.1.3-1.7h0c.1-.7.1-1.5.1-2.3 0-11-8.7-19.8-19.5-19.8zm0 28.2c-4.6 0-8.3-3.8-8.3-8.4s3.7-8.4 8.3-8.4 8.3 3.8 8.3 8.4-3.7 8.4-8.3 8.4z" fill="#f47e60" stroke-linecap="round" stroke="#333" stroke-width="3.5" stroke-miterlimit="10"/><metadata xmlns:d="https://loading.io/stock/">
<d:name>location</d:name>
<d:tags>location,place,locality,marker,landmark,waypoint,gps</d:tags>
<d:license>by</d:license>
<d:slug>atw0hu</d:slug>
</metadata></svg>